<?xml version="1.0" standalone="no"?><!DOCTYPE svg PUBLIC "-//W3C//DTD SVG 1.1//EN" "http://www.w3.org/Graphics/SVG/1.1/DTD/svg11.dtd"><svg t="1604247119546" class="icon" viewBox="0 0 1024 1024" version="1.1" xmlns="http://www.w3.org/2000/svg" p-id="40276" xmlns:xlink="http://www.w3.org/1999/xlink" width="32" height="32"><defs><style type="text/css"></style></defs><path d="M501.470204 326.681036s-157.050668-37.697925-370.596751 119.414508c0 0 301.562812 100.514074 301.562811 515.150073h138.212c0-414.635998 301.542223-515.150072 301.542223-515.150073-213.669616-157.112434-370.720283-119.414509-370.720283-119.414508zM130.811687 138.211999c63.948528 65.883867 116.84092 144.532733 109.634872 193.84269 41.795078-21.926974 87.502011-39.921506 129.091201-39.921506 0 0-84.187229-87.954962-238.726073-292.133183-75.437028 114.576162-147.621039 254.435258-18.838669 408.335853 10.294354-4.30304 27.012385-15.009168 47.745215-28.247708 0 0-94.85218-91.105035-28.906546-241.876146zM893.170381 0c-154.538845 204.178221-238.726074 292.133183-238.726074 292.133183 41.589191 0 87.296124 17.994531 129.11179 39.921506-7.226637-49.309957 45.686344-127.917645 109.614284-193.84269 65.883867 150.771111-28.824192 241.876146-28.824192 241.876146 20.732829 13.238539 37.409683 23.944668 47.745215 28.247708C1040.79142 254.435258 968.607408 114.576162 893.170381 0z" p-id="40277" fill="#13227a"></path><path d="M217.819568 665.921184s109.943703-12.559112 135.082516 125.591121c-138.211999 9.388451-135.082516-125.591121-135.082516-125.591121zM789.506234 665.921184s-109.943703-12.559112-135.061927 125.591121c138.211999 9.388451 135.061927-125.591121 135.061927-125.591121zM432.374498 961.183851l69.095706 62.816149 69.116294-60.921988s-53.40711-30.162458-138.212-1.894161zM684.503821 590.442979c85.401962-110.293711 187.624899-144.409201 187.6249-144.409201q-17.479813-12.806177-34.403732-23.944667l-203.189963-41.177417zM676.762467 343.954962a483.690526 483.690526 0 0 0-65.883867-15.812128L634.535026 380.891105z" p-id="40278" fill="#13227a"></path><path d="M564.471651 598.472575l70.083964-217.519704-265.553161 237.861348 195.469197-20.341644zM634.535026 380.891105l203.189963 41.177417c-59.542545-39.118546-113.97909-63.454399-160.962522-78.11356z" p-id="40279" fill="#13227a"></path><path d="M608.819729 728.449091a532.094579 532.094579 0 0 1 29.441853-66.275052l-73.831108-63.701464zM564.471651 598.472575l73.831109 63.701464a498.782049 498.782049 0 0 1 46.201061-71.73106L634.535026 380.891105zM369.002454 618.814219l214.884349 199.525173a593.737172 593.737172 0 0 1 24.932926-89.890301l-44.389255-129.976516zM610.8786 328.142834c-68.457455-11.262023-109.387808-1.461798-109.387808-1.461798s-86.678462-20.774007-218.816792 32.941933L634.535026 380.891105z" p-id="40280" fill="#13227a"></path><path d="M634.535026 380.891105l-351.881615-21.309313a661.20637 661.20637 0 0 0-95.552196 48.589352l181.901239 210.643075zM352.716786 640.926492c43.792183 73.851697 77.166479 173.253981 79.472414 305.57761l139.714975-31.418369a708.498633 708.498633 0 0 1 11.982628-96.76693l-214.884349-199.504584z" p-id="40281" fill="#13227a"></path><path d="M432.374498 961.183851h138.212c0-15.832717 0.47354-31.150716 1.317677-46.098118l-139.714975 31.418369c0.102944 4.858935 0.185298 9.71787 0.185298 14.679749zM187.101215 408.171144c-18.262184 11.15908-37.059675 23.718192-56.289528 37.862634 0 0 122.543992 40.889175 211.384269 177.907029l26.76532-5.126588zM342.195956 623.940807c3.582435 5.497185 7.082516 11.179669 10.52083 16.985685l16.285668-22.112273zM41.33316 237.120154L112.961276 192.71031a286.677175 286.677175 0 0 1 17.850411-54.498311c8.750201 9.017854 17.273926 18.262184 25.468232 27.650636l69.733955-43.236288Q191.01307 78.792987 148.065024 22.647579l-37.327328 8.791379C72.319166 93.863922 39.686063 162.959627 41.33316 237.120154z" p-id="40282" fill="#13227a"></path><path d="M148.065024 22.647579c-5.661895-7.411935-11.385556-14.926814-17.253337-22.647579-6.753096 10.294354-13.506193 20.774007-20.073991 31.438958zM239.067115 304.362876l100.143478-45.768699c-13.650314-15.523886-31.830143-36.606724-54.333602-63.639697l-61.9926 65.554447a179.410005 179.410005 0 0 1 16.182724 43.853949zM137.544194 350.769825h-0.020588 0.020588z" p-id="40283" fill="#13227a"></path><path d="M240.446559 332.054689c41.795078-21.926974 87.502011-39.921506 129.091201-39.921506 0 0-10.294354-10.809072-30.327167-33.539006l-100.143478 45.768699a80.645971 80.645971 0 0 1 1.379444 27.691813zM137.544194 350.769825h-0.020588 0.020588zM137.544194 350.790413v-0.020588h-0.020588l0.020588 0.020588zM78.31048 361.125945l59.213126-10.294354c-18.715136-30.965417-40.312691-85.237253-24.56233-158.121281L41.33316 237.120154c0.885314 39.962683 11.735564 81.366576 36.97732 124.005791zM222.884391 260.508927l61.9926-65.554447q-25.694708-30.883063-58.863117-72.328133l-69.733955 43.236288c27.506514 31.438958 51.286473 64.319125 66.604472 94.646292z" p-id="40284" fill="#13227a"></path><path d="M100.525697 394.006112c3.623613 4.755992 7.432524 9.553161 11.447321 14.412096 10.294354-4.30304 27.012385-15.009168 47.745215-28.247708a157.935982 157.935982 0 0 1-22.174039-29.380087z" p-id="40285" fill="#13227a"></path><path d="M78.31048 361.125945a343.502011 343.502011 0 0 0 22.215217 32.941933l37.059675-43.236287zM878.367099 153.941773q7.288403-7.96783 14.803282-15.729774c1.955927 4.488338 3.747145 8.914911 5.435419 13.300306l55.754222-42.989223C937.703757 70.310439 915.591484 34.033135 893.170381 0q-28.494772 37.656748-53.757118 70.001608zM900.479372 156.638893l63.104391-25.097635q-4.241274-11.612032-9.223741-23.018176l-55.754222 42.989223c0.679427 1.729452 1.235323 3.417726 1.873572 5.126588zM901.179388 158.533055l65.492681-18.34454c-0.967669-2.903008-2.058871-5.785427-3.047128-8.647257l-63.145569 25.097635z" p-id="40286" fill="#13227a"></path><path d="M913.676734 207.266527l60.921988 86.225511c14.412096-53.530642 8.44137-104.858292-7.96783-153.303523L901.179388 158.533055a266.211999 266.211999 0 0 1 12.497346 48.733472zM805.936023 112.620235l68.622165 45.501045c1.255911-1.400032 2.532411-2.800064 3.808911-4.117741L839.413263 70.001608q-17.562168 22.647579-33.47724 42.618627zM654.444307 292.133183c21.638733 0 44.389255 4.900113 67.139778 12.662056l115.296767-100.884671c10.026701-13.485604 21.062249-26.847676 32.633103-40.127393l-105.68184 1.152968c-71.504584 87.584365-109.387808 127.19704-109.387808 127.19704zM763.832115 164.936143l105.68184-1.152968c1.667685-1.894161 3.355959-3.767734 5.044233-5.661895l-68.622165-45.501045q-22.668168 28.577127-42.103908 52.315908z" p-id="40287" fill="#13227a"></path><path d="M783.556097 332.054689C778.635396 298.536272 801.591806 251.326363 836.922029 203.828213l-115.296767 100.884671a442.780762 442.780762 0 0 1 61.930835 27.341805zM864.263834 380.088145c20.732829 13.238539 37.409683 23.944668 47.745215 28.247708 32.941933-39.242078 52.60415-77.598842 62.589673-114.843815l-60.921988-86.225511c16.882741 109.058388-49.4129 172.821618-49.4129 172.821618z" p-id="40288" fill="#13227a"></path></svg>