<?xml version="1.0" standalone="no"?><!DOCTYPE svg PUBLIC "-//W3C//DTD SVG 1.1//EN" "http://www.w3.org/Graphics/SVG/1.1/DTD/svg11.dtd"><svg t="1602291834259" class="icon" viewBox="0 0 1024 1024" version="1.1" xmlns="http://www.w3.org/2000/svg" p-id="7755" xmlns:xlink="http://www.w3.org/1999/xlink" width="32" height="32"><defs><style type="text/css"></style></defs><path d="M651.1 923.9H373.2c-23.3 0.3-43.2-16.5-46.9-39.4l-90.4-554.3h552.7l-91 554.8c-3.9 22.6-23.6 39-46.5 38.9zM821 297.5H203.3c-11.1-22.1-2.3-49.1 19.8-60.2 6.4-3.2 13.4-4.9 20.5-4.8H781c24.8-0.1 44.9 20 44.9 44.7 0 7-1.6 14-4.8 20.3h-0.1z" fill="#8a8a8a" p-id="7756"></path><path d="M788.6 232.5H235.9l23.5-46.9c5.5-11 16.8-18 29.1-18.1h447.6c12.3 0 23.6 7 29.1 18.1l23.4 46.9zM339 167.5v-65l59.6 32.6v32.4z" fill="#8a8a8a" p-id="7757"></path></svg>