<?xml version="1.0" standalone="no"?><!DOCTYPE svg PUBLIC "-//W3C//DTD SVG 1.1//EN" "http://www.w3.org/Graphics/SVG/1.1/DTD/svg11.dtd"><svg t="1602292172851" class="icon" viewBox="0 0 1024 1024" version="1.1" xmlns="http://www.w3.org/2000/svg" p-id="9999" xmlns:xlink="http://www.w3.org/1999/xlink" width="32" height="32"><defs><style type="text/css"></style></defs><path d="M837.4 960H186.6c-35.2 0-62.8-30.1-59.9-65.2l50.1-602.3c2.6-31.2 28.6-55.2 59.9-55.2H332C336 140.9 414.9 64 512 64s176 76.9 180 173.2h95.4c31.3 0 57.3 24 59.9 55.2l50.1 602.3c2.9 35.2-24.8 65.3-60 65.3zM512 109.2c-72 0-131 56.8-134.9 128h269.8c-4-71.2-62.8-128-134.9-128z m135.3 361.4c0 74.7-60.7 135.5-135.3 135.5-74.6 0-135.3-60.8-135.3-135.5h-45.1c0 99.8 80.8 180.7 180.4 180.7 99.6 0 180.4-80.9 180.4-180.7h-45.1z" p-id="10000" fill="#13227a"></path></svg>