<?xml version="1.0" standalone="no"?><!DOCTYPE svg PUBLIC "-//W3C//DTD SVG 1.1//EN" "http://www.w3.org/Graphics/SVG/1.1/DTD/svg11.dtd"><svg t="1604245918033" class="icon" viewBox="0 0 1024 1024" version="1.1" xmlns="http://www.w3.org/2000/svg" p-id="23127" xmlns:xlink="http://www.w3.org/1999/xlink" width="32" height="32"><defs><style type="text/css"></style></defs><path d="M613.037367 856.921449c131.517914-37.254001 209.412644-135.469096 220.701735-274.324919 11.289091-142.807005-22.013728-277.711646-74.508002-409.22956-2.822273-7.337909-15.804728-14.675819-24.271547-14.675818-147.887096-1.128909-295.209738 0-443.096833-1.12891-17.498092 0-24.836001 6.209-30.480547 21.449274-38.947365 100.472913-67.170093 203.768098-72.250184 311.57892-2.257818 47.414183 1.128909 96.521731 10.724636 143.371459 24.836001 120.793277 102.166276 194.736825 220.137281 225.781827 18.062546 5.080091 26.529365 13.54691 31.045001 31.045001 10.724637 41.205183-1.693364 72.814639-41.205183 88.054912-32.738365 12.982455-67.170093 20.884819-101.601822 29.916092-14.675819 3.951182-30.480547 6.209-45.156365 9.031273 0.564455 2.257818 0.564455 4.515637 1.128909 6.209H762.053372c-6.209-7.337909-13.54691-9.031273-20.320364-10.724637-38.947365-10.160182-78.459185-19.191455-117.40655-29.916092-10.160182-2.822273-20.320364-8.466818-28.787182-14.675818-24.271546-17.498092-27.658274-42.334092-24.271547-69.992366 2.822273-26.529365 18.627001-35.560638 41.769638-41.769638zM239.368445 361.894795c18.062546-55.881002 34.431728-107.810822 51.92982-159.176187 1.693364-4.515637 11.289091-9.031273 17.498092-9.031273 134.904641-0.564455 269.809282-0.564455 404.713923 0 6.209 0 17.498092 3.386727 18.627 7.902364 18.062546 51.92982 34.431728 104.424095 52.494275 160.305096H239.368445zM506.919909 66.120603C463.456907 7.417328 412.655997-12.338582 355.646085 7.417328c-49.107547 16.933637-82.410367 63.783366-80.717002 114.019822h471.319562c-10.724637-67.734548-123.61555-93.699458-239.328736-55.316547z" p-id="23128" fill="#13227a"></path></svg>