<?xml version="1.0" standalone="no"?><!DOCTYPE svg PUBLIC "-//W3C//DTD SVG 1.1//EN" "http://www.w3.org/Graphics/SVG/1.1/DTD/svg11.dtd"><svg t="1604246541682" class="icon" viewBox="0 0 1024 1024" version="1.1" xmlns="http://www.w3.org/2000/svg" p-id="31116" xmlns:xlink="http://www.w3.org/1999/xlink" width="32" height="32"><defs><style type="text/css"></style></defs><path d="M756.622222 455.111111H270.222222c-17.066667 0-28.444444 11.377778-28.444444 28.444445v5.688888l59.733333 403.911112c8.533333 42.666667 42.666667 73.955556 85.333333 73.955555h250.311112c42.666667 0 79.644444-31.288889 85.333333-73.955555l62.577778-403.911112V483.555556c0-17.066667-11.377778-28.444444-28.444445-28.444445zM807.822222 341.333333h-34.133333c-39.822222-93.866667-128-159.288889-233.244445-170.666666 0-8.533333 5.688889-14.222222 11.377778-17.066667l96.711111-56.888889c14.222222-8.533333 19.911111-25.6 11.377778-39.822222s-25.6-19.911111-39.822222-11.377778l-122.311111 71.111111c-8.533333 5.688889-14.222222 14.222222-14.222222 22.755556V170.666667c-105.244444 11.377778-193.422222 76.8-233.244445 170.666666H213.333333c-17.066667 0-28.444444 11.377778-28.444444 28.444445 0 14.222222 11.377778 25.6 22.755555 28.444444h605.866667c14.222222-2.844444 22.755556-14.222222 22.755556-28.444444 0-17.066667-11.377778-28.444444-28.444445-28.444445zM483.555556 341.333333h-133.688889c-5.688889 0-8.533333 0-11.377778-2.844444-8.533333-5.688889-8.533333-17.066667-2.844445-25.6 28.444444-36.977778 71.111111-65.422222 119.466667-76.8 5.688889-2.844444 14.222222-2.844444 28.444445-5.688889V341.333333z m196.266666 2.844445h-136.533333v-113.777778c11.377778 2.844444 22.755556 2.844444 28.444444 5.688889 48.355556 11.377778 88.177778 39.822222 119.466667 76.8 0 2.844444 2.844444 8.533333 5.688889 14.222222 0 8.533333-8.533333 17.066667-17.066667 17.066667z" p-id="31117" fill="#13227a"></path></svg>