<?xml version="1.0" standalone="no"?><!DOCTYPE svg PUBLIC "-//W3C//DTD SVG 1.1//EN" "http://www.w3.org/Graphics/SVG/1.1/DTD/svg11.dtd"><svg t="1604246687270" class="icon" viewBox="0 0 1024 1024" version="1.1" xmlns="http://www.w3.org/2000/svg" p-id="32366" xmlns:xlink="http://www.w3.org/1999/xlink" width="32" height="32"><defs><style type="text/css"></style></defs><path d="M423.957434 698.696772c-54.18004-8.465631-107.23133-22.010641-167.055125-34.991276 10.158758 117.954463 17.495638 217.848913 28.783147 318.307738 1.693126 14.673761 19.75314 39.50628 31.040648 40.070655 115.132586 2.821877 230.829548 1.693126 344.833383 1.693126 12.416259-119.647589 24.268143-231.393923 37.813153-361.20027-61.516921 14.109386-115.132586 29.911897-169.312627 38.377529-34.991276 4.515003-71.675679 2.821877-106.102579-2.257502zM237.713545 522.611641c69.982552-6.20813 131.499473 12.980635 191.323268-26.525645 24.268143-15.802512 77.883808-15.238136 101.587576 1.128751 60.952546 41.763781 121.905091 16.366887 183.986387 24.268143 5.079379-48.536286 9.594382-91.428818 14.109386-139.400729H224.73291c5.079379 49.665037 9.030007 93.68632 12.980635 140.52948zM826.921485 0c-33.29815 9.030007-49.665037 12.416259-77.883808 18.624389-133.756975 30.476273-192.452019 40.070655-203.739527 163.668872-3.950628 40.070655-0.564375 31.605024-44.021283 31.605024-63.774423 0.564375-127.548845 3.950628-190.758893 0.564375-46.278785-2.257502-76.755057 11.287508-88.042565 64.338798H728.155787c-8.465631-89.171317-79.012559-54.744416-125.291344-66.031924 3.386253-81.834436 8.465631-108.924456 101.0232-132.063849 45.150034-11.287508 90.864443-19.188764 135.450102-32.169399L826.921485 0zM188.048508 357.249642h575.66293v-62.081296H184.662255c1.693126 24.832519 2.821877 43.456907 3.386253 62.081296zM361.311762 548.008535H238.842296c6.20813 37.248778 11.287508 69.982552 16.366887 102.151951H361.311762V548.008535zM594.963187 650.724861h104.409453c3.950628-34.991276 7.33688-67.725051 11.287508-103.845077h-116.261336c0.564375 35.555652 0.564375 68.853801 0.564375 103.845077z" p-id="32367" fill="#515151"></path></svg>