<?xml version="1.0" standalone="no"?><!DOCTYPE svg PUBLIC "-//W3C//DTD SVG 1.1//EN" "http://www.w3.org/Graphics/SVG/1.1/DTD/svg11.dtd"><svg t="1604246167709" class="icon" viewBox="0 0 1024 1024" version="1.1" xmlns="http://www.w3.org/2000/svg" p-id="23359" xmlns:xlink="http://www.w3.org/1999/xlink" width="32" height="32"><defs><style type="text/css"></style></defs><path d="M807.228955 260.94922l-83.305311 0L558.749744 260.94922l25.367761-98.865705 139.821489-61.122079c10.93505-4.774747 15.921621-17.515932 11.145851-28.452006-4.792143-10.951423-17.567098-15.930831-28.443819-11.137665l-159.12616 69.559239-33.365922 130.018216L330.127789 260.94922l-83.304288 0c-17.891486 0-32.529881 14.639418-32.529881 32.531927l0 11.128455c0 17.890462 14.638395 32.527834 32.529881 32.527834l31.330566 0L291.769157 447.413006l469.530746 0L775.823688 337.137437l31.405267 0c17.891486 0 32.529881-14.637372 32.529881-32.527834l0-11.128455C839.758836 275.588639 825.12044 260.94922 807.228955 260.94922z" p-id="23360" fill="#13227a"></path><path d="M346.635765 891.804189c3.608178 29.231765 26.301016 51.027164 53.120848 51.027164l249.89649 0c26.638707 0 49.236378-21.51092 53.054333-50.508347l20.577664-156.25374L327.407841 736.069265 346.635765 891.804189z" p-id="23361" fill="#13227a"></path><path d="M302.662251 703.384865 749.551324 703.384865 778.957051 480.098429 275.094382 480.098429Z" p-id="23362" fill="#13227a"></path></svg>