<?xml version="1.0" standalone="no"?><!DOCTYPE svg PUBLIC "-//W3C//DTD SVG 1.1//EN" "http://www.w3.org/Graphics/SVG/1.1/DTD/svg11.dtd"><svg t="1603701181608" class="icon" viewBox="0 0 1024 1024" version="1.1" xmlns="http://www.w3.org/2000/svg" p-id="13594" xmlns:xlink="http://www.w3.org/1999/xlink" width="32" height="32"><defs><style type="text/css"></style></defs><path d="M0 511.99A511.97 511.97 0 1 0 255.985 68.603 511.97 511.97 0 0 0 0 511.99z" fill="#CECECE" p-id="13595"></path><path d="M0 511.99a511.97 511.97 0 1 0 1023.942 0A511.97 511.97 0 1 0 0 511.99z" fill="#6C7988" p-id="13596"></path><path d="M634.107 160.676a9.973 9.973 0 0 0-18.8-0.492l-64.385 163.831a251.378 251.378 0 0 0-115.091 4.321 248.634 248.634 0 0 0-102.681 57.34L170.978 275.399a8.929 8.929 0 0 0-13.598 9.79l209.498 717.864s101.514 35.183 227.52 14.335c0 0 70.427-10.464 140.772-44.48 0 0 68.379-32.438 123.753-84.413zM571.01 540.722a30.104 30.104 0 1 1-30.083 30.104 30.124 30.124 0 0 1 30.083-30.104z m-120.17 30.104a30.104 30.104 0 1 1-30.103 30.083 30.124 30.124 0 0 1 30.104-30.083z m259.754 135.98C676.211 772.193 603.41 817.39 519.138 817.39a224.632 224.632 0 0 1-106.49-26.397 16.055 16.055 0 0 1-6.143-22.527c0.102-0.102 0.102-0.205 0.205-0.307a17.591 17.591 0 0 1 23.038-6.553 192.112 192.112 0 0 0 89.534 21.769c74.195 0 137.679-41.08 164.773-99.282a12.84 12.84 0 0 1 20.908-3.788c0.901 0.799 1.7 1.7 2.601 2.498a19.885 19.885 0 0 1 3.031 24.001z" fill="#FFFFFF" p-id="13597"></path></svg>